# xmcd
#
# Track frame offsets: 
#        182
#        21750
#        45435
#        57502
#        72585
#        90450
#        104712
#        113590
#        124170
#        144300
#        175177
#        187442
#        199045
#
# Disc length: 2793 seconds
#
# Revision: 0
# Processed by: cddbd v1.5.1PL2 Copyright (c) Steve Scherf et al.
# Submitted via: ExactAudioCopy v0.95b3
#
DISCID=be0ae70d
DTITLE=Various Artist - Gospel at Christmas
DYEAR=1993
DGENRE=Christmas
TTITLE0=Jimmie Hill - A Special Christmas
TTITLE1=Solomon Burke - Silent Night
TTITLE2=Shirley Caesar - Oh What a Wonderful Child
TTITLE3=Walter Ponder - Children Go Where I Send Thee
TTITLE4=Blind Boys of Alabama - White Christmas
TTITLE5=Swan Silvertones - When Was the Baby Born
TTITLE6=Stars of Faith - A Child is Born
TTITLE7=Charles Taylor Singers - Christmas Message
TTITLE8=Solomon Burke - Let's Keep the Christ in Christmas
TTITLE9=Solomon Burke - A Christmas Prayer
TTITLE10=Shirley Caesar - It Came Upon a Midnight Clear
TTITLE11=Charles Taylor Singers - The White Cliffs of Dover
TTITLE12=Gospel Starlets - Go Tell it on the Mountain
EXTD=
EXTT0=
EXTT1=
EXTT2=
EXTT3=
EXTT4=
EXTT5=
EXTT6=
EXTT7=
EXTT8=
EXTT9=
EXTT10=
EXTT11=
EXTT12=
PLAYORDER=
